<?xml version="1.0" encoding="iso-8859-1"?>
<!-- Generator: Adobe Illustrator 19.0.0, SVG Export Plug-In . SVG Version: 6.00 Build 0)  -->
<svg version="1.1" id="Layer_1" xmlns="http://www.w3.org/2000/svg" xmlns:xlink="http://www.w3.org/1999/xlink" x="0px" y="0px"
	 viewBox="0 0 512 512" style="enable-background:new 0 0 512 512;" xml:space="preserve">
<g>
	<g>
		<circle cx="221.091" cy="104.727" r="11.636"/>
	</g>
</g>
<g>
	<g>
		<circle cx="290.909" cy="104.727" r="11.636"/>
	</g>
</g>
<g>
	<g>
		<path d="M442.182,304.687v-60.323c0-19.247-15.663-34.909-34.909-34.909h-37.05c-4.817-13.51-17.617-23.273-32.768-23.273H174.545
			c-15.151,0-27.951,9.763-32.768,23.273h-37.05c-19.247,0-34.909,15.663-34.909,34.909v60.323
			c-13.51,4.817-23.273,17.617-23.273,32.768c0,6.435,5.201,11.636,11.636,11.636c6.435,0,11.636-5.201,11.636-11.636
			c0-6.423,5.213-11.636,11.636-11.636s11.636,5.213,11.636,11.636c0,6.435,5.201,11.636,11.636,11.636
			c6.435,0,11.636-5.201,11.636-11.636c0-15.151-9.763-27.951-23.273-32.768v-60.323c0-6.423,5.213-11.636,11.636-11.636h34.909
			v104.727c0,19.247,15.663,34.909,34.909,34.909h11.636v81.455c0,6.435,5.201,11.636,11.636,11.636
			c6.435,0,11.636-5.201,11.636-11.636v-81.455h58.182c6.435,0,11.636-5.201,11.636-11.636c0-6.435-5.201-11.636-11.636-11.636
			h-93.091c-6.423,0-11.636-5.213-11.636-11.636V221.091c0-6.423,5.213-11.636,11.636-11.636h162.909
			c6.423,0,11.636,5.213,11.636,11.636v116.364c0,6.423-5.213,11.636-11.636,11.636h-23.273c-6.435,0-11.636,5.201-11.636,11.636
			v93.091c0,6.435,5.201,11.636,11.636,11.636c6.435,0,11.636-5.201,11.636-11.636v-81.455h11.636
			c19.247,0,34.909-15.663,34.909-34.909V232.727h34.909c6.423,0,11.636,5.213,11.636,11.636v60.323
			c-13.51,4.817-23.273,17.617-23.273,32.768c0,6.435,5.201,11.636,11.636,11.636c6.435,0,11.636-5.201,11.636-11.636
			c0-6.423,5.213-11.636,11.636-11.636c6.423,0,11.636,5.213,11.636,11.636c0,6.435,5.201,11.636,11.636,11.636
			s11.636-5.201,11.636-11.636C465.455,322.304,455.692,309.504,442.182,304.687z"/>
	</g>
</g>
<g>
	<g>
		<path d="M314.182,46.545h-1.175C307.596,20.026,284.09,0,256,0c-28.09,0-51.596,20.026-57.007,46.545h-1.175
			c-32.081,0-58.182,26.1-58.182,58.182c0,32.081,26.1,58.182,58.182,58.182h116.364c32.081,0,58.182-26.1,58.182-58.182
			C372.364,72.646,346.263,46.545,314.182,46.545z M256,23.273c15.151,0,27.951,9.763,32.768,23.273h-65.524
			C228.049,33.036,240.849,23.273,256,23.273z M314.182,139.636H197.818c-19.247,0-34.909-15.663-34.909-34.909
			c0-19.247,15.663-34.909,34.909-34.909h116.364c19.247,0,34.909,15.663,34.909,34.909
			C349.091,123.974,333.428,139.636,314.182,139.636z"/>
	</g>
</g>
<g>
	<g>
		<path d="M256,232.727c-6.435,0-11.636,5.201-11.636,11.636v23.273c0,6.435,5.201,11.636,11.636,11.636
			c6.435,0,11.636-5.201,11.636-11.636v-23.273C267.636,237.929,262.435,232.727,256,232.727z"/>
	</g>
</g>
<g>
	<g>
		<path d="M302.545,232.727c-6.435,0-11.636,5.201-11.636,11.636v23.273c0,6.435,5.201,11.636,11.636,11.636
			c6.435,0,11.636-5.201,11.636-11.636v-23.273C314.182,237.929,308.98,232.727,302.545,232.727z"/>
	</g>
</g>
<g>
	<g>
		<path d="M209.454,232.727c-6.435,0-11.636,5.201-11.636,11.636v23.273c0,6.435,5.201,11.636,11.636,11.636
			c6.435,0,11.636-5.201,11.636-11.636v-23.273C221.091,237.929,215.889,232.727,209.454,232.727z"/>
	</g>
</g>
<g>
	<g>
		<path d="M256,395.636c-19.247,0-34.909,15.663-34.909,34.909v46.545C221.091,496.337,236.753,512,256,512
			s34.909-15.663,34.909-34.909v-46.545C290.909,411.299,275.246,395.636,256,395.636z M267.636,477.091
			c0,6.423-5.213,11.636-11.636,11.636s-11.636-5.213-11.636-11.636v-46.545c0-6.423,5.213-11.636,11.636-11.636
			s11.636,5.213,11.636,11.636V477.091z"/>
	</g>
</g>
<g>
</g>
<g>
</g>
<g>
</g>
<g>
</g>
<g>
</g>
<g>
</g>
<g>
</g>
<g>
</g>
<g>
</g>
<g>
</g>
<g>
</g>
<g>
</g>
<g>
</g>
<g>
</g>
<g>
</g>
</svg>
